<svg xmlns="http://www.w3.org/2000/svg" viewBox="0 0 32 32">
  <circle cx="16" cy="16" r="16" fill="#F7931A"/>
  <path d="M22.5 14.2c.3-2.1-1.3-3.2-3.4-3.9l.7-2.8-1.7-.4-.7 2.7c-.4-.1-.9-.2-1.4-.3l.7-2.8-1.7-.4-.7 2.8c-.4-.1-.7-.2-1-.2v0l-2.4-.6-.5 1.8s1.3.3 1.2.3c.7.2.8.6.8 1l-.8 3.2c0 0 .1 0 .2.1h-.2l-1.2 4.7c-.1.2-.3.5-.8.4 0 0-1.2-.3-1.2-.3l-.8 2 2.2.6c.4.1.8.2 1.2.3l-.7 2.8 1.7.4.7-2.8c.5.1.9.2 1.4.3l-.7 2.8 1.7.4.7-2.8c3 .6 5.2.3 6.1-2.4.8-2.1 0-3.3-1.6-4.1 1.1-.3 2-.1 2.2-1.9zm-3.9 5.5c-.6 2.3-4.4 1.1-5.7.7l1-4.1c1.3.3 5.3 1 4.7 3.4zm.6-5.5c-.5 2.1-3.7 1-4.8.8l.9-3.7c1.1.3 4.5.8 3.9 2.9z" fill="white"/>
</svg>
